<svg xmlns="http://www.w3.org/2000/svg" xmlns:xlink="http://www.w3.org/1999/xlink" version="1.1" x="0px" y="0px" viewBox="0 -30 100 125" enable-background="new 0 0 100 100" xml:space="preserve"><path d="M93.166,39.664c-10.822-7.577-22.033-14.476-33.674-20.721c-3.678-1.973-7.873,2.927-4.6,5.963  c3.372,3.128,6.877,6.059,10.505,8.818c-16.335-0.64-33.983,4.327-45.979,13.596C12.722,52.494,7.133,60.025,5.531,68.476  c-0.919,4.852-1.344,12.27,4.811,13.026c1.397,0.172,1.714-1.862,0.677-2.499c-5.772-3.545,4.77-18.964,7.278-21.649  c4.996-5.347,11.446-8.949,18.298-11.372c14.284-5.051,30.929-7.094,45.288-1.589c0.172,0.066,0.336,0.098,0.501,0.136  c-5.105,4.066-9.537,8.87-12.952,14.564c-2.487,4.148,3.659,7.523,6.374,3.726c4.863-6.803,10.182-12.23,17.359-16.6  C95.74,44.653,95.479,41.284,93.166,39.664z"/></svg>