<svg xmlns="http://www.w3.org/2000/svg" viewBox="0 0 1440 320">
  <defs>
       <linearGradient id="grad1" x1="0%" y1="0%" x2="100%" y2="0%">

      <stop offset="0%" style="stop-color:#fff;
        stop-opacity:0.5">
          <animate
          attributeName="stop-color" values="#3D241780; #FFFFFF80; #3D241780" dur="4s" repeatCount="indefinite"
          ></animate>
      </stop>



        <stop offset="10%" style="stop-color:#f5a8c2;
        stop-opacity:0.5">
        <animate
        attributeName="stop-color" values="#FFFFFF80; #3D241780; #FFFFFF80" dur="4s" repeatCount="indefinite"
        ></animate>
      </stop>


        <stop offset="100%" style="stop-color:#3D2417;stop-opacity:0.5">

        </stop>

      </linearGradient>
    </defs>
  <path fill="url(#grad1)" fill-opacity="1" d="M0,256L26.7,266.7C53.3,277,107,299,160,288C213.3,277,267,235,320,181.3C373.3,128,427,64,480,64C533.3,64,587,128,640,170.7C693.3,213,747,235,800,229.3C853.3,224,907,192,960,170.7C1013.3,149,1067,139,1120,144C1173.3,149,1227,171,1280,154.7C1333.3,139,1387,85,1413,58.7L1440,32L1440,0L1413.3,0C1386.7,0,1333,0,1280,0C1226.7,0,1173,0,1120,0C1066.7,0,1013,0,960,0C906.7,0,853,0,800,0C746.7,0,693,0,640,0C586.7,0,533,0,480,0C426.7,0,373,0,320,0C266.7,0,213,0,160,0C106.7,0,53,0,27,0L0,0Z">
  </path>
</svg>