<svg xmlns="http://www.w3.org/2000/svg" viewBox="0 0 1440 320">

  <defs>
      <linearGradient id="grad1" x1="0%" y1="0%" x2="100%" y2="0%">

      <stop offset="0%" style="stop-color:#fff;
        stop-opacity:0.5">
          <animate
          attributeName="stop-color" values="#3D241780; #FFFFFF80; #3D241780" dur="4s" repeatCount="indefinite"
          ></animate>
      </stop>



        <stop offset="10%" style="stop-color:#f5a8c2;
        stop-opacity:0.5">
        <animate
        attributeName="stop-color" values="#FFFFFF80; #3D241780; #FFFFFF80" dur="4s" repeatCount="indefinite"
        ></animate>
      </stop>


        <stop offset="100%" style="stop-color:#3D2417;stop-opacity:0.5">

        </stop>

      </linearGradient>
    </defs>


<path fill="url(#grad1)" fill-opacity="1" d="M0,160L26.7,165.3C53.3,171,107,181,160,186.7C213.3,192,267,192,320,181.3C373.3,171,427,149,480,128C533.3,107,587,85,640,85.3C693.3,85,747,107,800,138.7C853.3,171,907,213,960,224C1013.3,235,1067,213,1120,181.3C1173.3,149,1227,107,1280,122.7C1333.3,139,1387,213,1413,250.7L1440,288L1440,320L1413.3,320C1386.7,320,1333,320,1280,320C1226.7,320,1173,320,1120,320C1066.7,320,1013,320,960,320C906.7,320,853,320,800,320C746.7,320,693,320,640,320C586.7,320,533,320,480,320C426.7,320,373,320,320,320C266.7,320,213,320,160,320C106.7,320,53,320,27,320L0,320Z"></path>
</svg>

