<svg xmlns="http://www.w3.org/2000/svg" xmlns:xlink="http://www.w3.org/1999/xlink" version="1.1" xml:space="preserve" viewBox="-0.98 399.45 1001.97 385"><defs>   <linearGradient id="grad1" x1="0%" y1="0%" x2="100%" y2="0%">      <stop offset="0%" style="stop-color:#fff;         stop-opacity:0.5">          <animate attributeName="stop-color" values="#3D241780; #F7F4F3EE; #3D241780" dur="4s" repeatCount="indefinite"></animate>      </stop>        <stop offset="70%" style="stop-color:#F7F4F3;         stop-opacity:0.5">       <animate attributeName="stop-color" values="#F7F4F3EE; #3D241780; #F7F4F3EE" dur="4s" repeatCount="indefinite"></animate>      </stop>        <stop offset="100%" style="stop-color:#3D241790;stop-opacity:0.5">        </stop>      </linearGradient></defs><g transform="matrix(-0.6949 0 0 -0.6944 500.172 500.5065)" id="313034"><path fill="url(#grad1)" transform=" translate(-720, -145.5014)" d="M 0 256 L 26.7 266.7 C 53.3 277 107 299 160 288 C 213.3 277 267 235 320 181.3 C 373.3 128 427 64 480 64 C 533.3 64 587 128 640 170.7 C 693.3 213 747 235 800 229.3 C 853.3 224 907 192 960 170.7 C 1013.3 149 1067 139 1120 144 C 1173.3 149 1227 171 1280 154.7 C 1333.3 139 1387 85 1413 58.7 L 1440 32 L 1440 0 L 1413.3 0 C 1386.7 0 1333 0 1280 0 C 1226.7 0 1173 0 1120 0 C 1066.7 0 1013 0 960 0 C 906.7 0 853 0 800 0 C 746.7 0 693 0 640 0 C 586.7 0 533 0 480 0 C 426.7 0 373 0 320 0 C 266.7 0 213 0 160 0 C 106.7 0 53 0 27 0 L 0 0 Z" stroke-linecap="round"></path></g><g transform="matrix(-0.6958 0 0 -0.7794 500 692.9723)" id="144111"><path fill="url(#grad1)" transform=" translate(-720, -202.6485)" d="M 0 160 L 26.7 165.3 C 53.3 171 107 181 160 186.7 C 213.3 192 267 192 320 181.3 C 373.3 171 427 149 480 128 C 533.3 107 587 85 640 85.3 C 693.3 85 747 107 800 138.7 C 853.3 171 907 213 960 224 C 1013.3 235 1067 213 1120 181.3 C 1173.3 149 1227 107 1280 122.7 C 1333.3 139 1387 213 1413 250.7 L 1440 288 L 1440 320 L 1413.3 320 C 1386.7 320 1333 320 1280 320 C 1226.7 320 1173 320 1120 320 C 1066.7 320 1013 320 960 320 C 906.7 320 853 320 800 320 C 746.7 320 693 320 640 320 C 586.7 320 533 320 480 320 C 426.7 320 373 320 320 320 C 266.7 320 213 320 160 320 C 106.7 320 53 320 27 320 L 0 320 Z" stroke-linecap="round"></path></g></svg>