<svg xmlns="http://www.w3.org/2000/svg" viewBox="300 0 600 600"><path fill="#D1AE89" fill-opacity="1" d="M0,256L21.8,250.7C43.6,245,87,235,131,197.3C174.5,160,218,96,262,85.3C305.5,75,349,117,393,160C436.4,203,480,245,524,229.3C567.3,213,611,139,655,144C698.2,149,742,235,785,256C829.1,277,873,235,916,186.7C960,139,1004,85,1047,74.7C1090.9,64,1135,96,1178,112C1221.8,128,1265,128,1309,112C1352.7,96,1396,64,1418,48L1440,32L1440,0L1418.2,0C1396.4,0,1353,0,1309,0C1265.5,0,1222,0,1178,0C1134.5,0,1091,0,1047,0C1003.6,0,960,0,916,0C872.7,0,829,0,785,0C741.8,0,698,0,655,0C610.9,0,567,0,524,0C480,0,436,0,393,0C349.1,0,305,0,262,0C218.2,0,175,0,131,0C87.3,0,44,0,22,0L0,0Z"></path></svg>

